<?xml version="1.0" standalone="no"?><!DOCTYPE svg PUBLIC "-//W3C//DTD SVG 1.1//EN" "http://www.w3.org/Graphics/SVG/1.1/DTD/svg11.dtd"><svg t="1676720137513" class="icon" viewBox="0 0 1024 1024" version="1.1" xmlns="http://www.w3.org/2000/svg" p-id="1092" width="64" height="64" xmlns:xlink="http://www.w3.org/1999/xlink"><path d="M279.1936 232.3968c-22.6304 0-40.96-18.3296-40.96-40.96V138.9056c0-22.6304 18.3296-40.96 40.96-40.96s40.96 18.3296 40.96 40.96v52.5312c0 22.6304-18.3808 40.96-40.96 40.96zM446.5152 232.3968c-22.6304 0-40.96-18.3296-40.96-40.96V138.9056c0-22.6304 18.3296-40.96 40.96-40.96s40.96 18.3296 40.96 40.96v52.5312c0 22.6304-18.3808 40.96-40.96 40.96zM613.8368 232.3968c-22.6304 0-40.96-18.3296-40.96-40.96V138.9056c0-22.6304 18.3296-40.96 40.96-40.96s40.96 18.3296 40.96 40.96v52.5312c0 22.6304-18.3296 40.96-40.96 40.96z" fill="#1ba784" p-id="1093"></path><path d="M562.688 835.7888H481.5872c-100.5568 0-182.016-81.5104-182.016-182.016v-122.4704c0-23.9616 19.4048-43.3664 43.3664-43.3664h358.4c23.9616 0 43.3664 19.4048 43.3664 43.3664v122.4704c0 100.5056-81.5104 182.016-182.016 182.016z" fill="#1ba784" p-id="1094"></path><path d="M530.688 769.1776c104.0384 0 188.416-84.3776 188.416-188.416V492.3392a44.32384 44.32384 0 0 0-19.3024-4.4032H344.4224c-24.7808 0-44.9024 20.0704-44.9024 44.9024v114.5856c0 11.264 1.024 22.3232 2.9696 33.024 33.28 53.2992 92.416 88.7296 159.8976 88.7296h68.3008z" fill="#1ba784" p-id="1095"></path><path d="M344.4224 487.8848c-24.7808 0-44.9024 20.0704-44.9024 44.9024v114.5856c0 4.9152 0.256 9.728 0.6144 14.5408a187.4432 187.4432 0 0 0 119.9104 43.0592h68.3008c104.0384 0 188.416-84.3776 188.416-188.416v-28.672H344.4224z" fill="#1ba784" p-id="1096"></path><path d="M610.7648 487.8848H344.4224c-24.7808 0-44.9024 20.0704-44.9024 44.9024v111.36c17.7152 5.4784 36.5056 8.448 56.0128 8.448h68.3008c96.0512 0 175.2576-71.8336 186.9312-164.7104z" fill="#1ba784" p-id="1097"></path><path d="M308.2752 581.8368h68.3008c69.632 0 130.3552-37.7856 163.0208-93.952H344.4224c-24.7808 0-44.9024 20.0704-44.9024 44.9024v48.8448c2.9184 0.1536 5.8368 0.2048 8.7552 0.2048z" fill="#1ba784" p-id="1098"></path><path d="M957.184 562.3808c0-80.3328-60.0576-146.8928-137.5744-157.2352V360.448c0-51.6096-41.984-93.5936-93.5936-93.5936H182.7328c-51.6096 0-93.5936 41.984-93.5936 93.5936v300.4416c0 141.1584 114.8416 256 256 256h218.4704c120.6784 0 222.0544-83.968 248.9344-196.5056 80.9472-7.1168 144.64-75.2128 144.64-158.0032z m-393.5744 272.5888H345.1392c-96 0-174.08-78.08-174.08-174.08V360.448c0-6.4512 5.2224-11.6736 11.6736-11.6736H726.016c6.4 0 11.6736 5.2224 11.6736 11.6736V660.8896c0 96-78.08 174.08-174.08 174.08z m256-198.7584V488.6016c32.1024 9.1648 55.6544 38.8096 55.6544 73.8304s-23.552 64.5632-55.6544 73.7792z" fill="#1ba784" p-id="1099"></path></svg>